<svg xmlns="http://www.w3.org/2000/svg"  viewBox="0 0 100 100" width="100px" height="100px"><path d="M 59 12 C 48.518545 12 40 20.518545 40 31 L 40 39 L 30 39 A 1.0001 1.0001 0 0 0 29 40 L 29 54 A 1.0001 1.0001 0 0 0 30 55 L 40 55 L 40 87 A 1.0001 1.0001 0 0 0 41 88 L 55 88 A 1.0001 1.0001 0 0 0 56 87 L 56 55 L 68 55 A 1.0001 1.0001 0 0 0 68.990234 54.140625 L 70.990234 40.140625 A 1.0001 1.0001 0 0 0 70 39 L 56 39 L 56 33 C 56 29.122516 59.122516 26 63 26 L 70 26 A 1.0001 1.0001 0 0 0 71 25 L 71 14 A 1.0001 1.0001 0 0 0 70.195312 13.019531 C 70.195312 13.019531 65.111111 12 59 12 z M 59 14 C 64.147435 14 67.972775 14.668762 69 14.857422 L 69 24 L 63 24 C 58.041484 24 54 28.041484 54 33 L 54 40 A 1.0001 1.0001 0 0 0 55 41 L 68.847656 41 L 67.132812 53 L 55 53 A 1.0001 1.0001 0 0 0 54 54 L 54 86 L 42 86 L 42 54 A 1.0001 1.0001 0 0 0 41 53 L 31 53 L 31 41 L 41 41 A 1.0001 1.0001 0 0 0 42 40 L 42 31 C 42 21.599455 49.599455 14 59 14 z M 59 17 C 51.28482 17 45 23.28482 45 31 L 45 31.5 A 0.50005 0.50005 0 1 0 46 31.5 L 46 31 C 46 23.82718 51.82718 18 59 18 C 61.419177 18 63.682651 18.180486 65.443359 18.380859 A 0.50028671 0.50028671 0 1 0 65.556641 17.386719 C 63.767349 17.183092 61.468823 17 59 17 z M 45.492188 33.992188 A 0.50005 0.50005 0 0 0 45 34.5 L 45 37.5 A 0.50005 0.50005 0 1 0 46 37.5 L 46 34.5 A 0.50005 0.50005 0 0 0 45.492188 33.992188 z M 45.492188 38.992188 A 0.50005 0.50005 0 0 0 45 39.5 L 45 40.5 A 0.50005 0.50005 0 1 0 46 40.5 L 46 39.5 A 0.50005 0.50005 0 0 0 45.492188 38.992188 z M 45.492188 52.992188 A 0.50005 0.50005 0 0 0 45 53.5 L 45 82.5 A 0.50005 0.50005 0 1 0 46 82.5 L 46 53.5 A 0.50005 0.50005 0 0 0 45.492188 52.992188 z"/></svg>